<mxfile host="65bd71144e">
    <diagram id="8hEnplS5qNxSaO3H7mMF" name="Page-1">
        <mxGraphModel dx="617" dy="489" grid="1" gridSize="10" guides="1" tooltips="1" connect="1" arrows="1" fold="1" page="1" pageScale="1" pageWidth="850" pageHeight="1100" math="0" shadow="0">
            <root>
                <mxCell id="0"/>
                <mxCell id="1" parent="0"/>
                <mxCell id="28" style="edgeStyle=none;html=1;entryX=0.561;entryY=1.021;entryDx=0;entryDy=0;entryPerimeter=0;" parent="1" source="2" target="3" edge="1">
                    <mxGeometry relative="1" as="geometry">
                        <Array as="points">
                            <mxPoint x="50" y="400"/>
                            <mxPoint x="187" y="400"/>
                        </Array>
                    </mxGeometry>
                </mxCell>
                <mxCell id="29" value="IP : 8.8.8.8" style="edgeLabel;html=1;align=center;verticalAlign=middle;resizable=0;points=[];fontStyle=1;fontSize=12;" parent="28" vertex="1" connectable="0">
                    <mxGeometry x="-0.0753" y="-2" relative="1" as="geometry">
                        <mxPoint x="17" y="-2" as="offset"/>
                    </mxGeometry>
                </mxCell>
                <mxCell id="2" value="DNS" style="html=1;whiteSpace=wrap;aspect=fixed;shape=isoRectangle;" parent="1" vertex="1">
                    <mxGeometry y="270" width="100" height="60" as="geometry"/>
                </mxCell>
                <mxCell id="4" style="edgeStyle=none;html=1;entryX=0.482;entryY=-0.028;entryDx=0;entryDy=0;entryPerimeter=0;" parent="1" source="3" target="2" edge="1">
                    <mxGeometry relative="1" as="geometry">
                        <Array as="points">
                            <mxPoint x="180" y="190"/>
                            <mxPoint x="48" y="190"/>
                        </Array>
                    </mxGeometry>
                </mxCell>
                <mxCell id="27" value="www.foobar.com" style="edgeLabel;html=1;align=center;verticalAlign=middle;resizable=0;points=[];fontStyle=1;fontSize=12;" parent="4" vertex="1" connectable="0">
                    <mxGeometry x="-0.1201" y="1" relative="1" as="geometry">
                        <mxPoint x="-17" as="offset"/>
                    </mxGeometry>
                </mxCell>
                <mxCell id="34" style="edgeStyle=none;html=1;exitX=0.75;exitY=0;exitDx=0;exitDy=0;entryX=0;entryY=0.25;entryDx=0;entryDy=0;" edge="1" parent="1" source="3" target="30">
                    <mxGeometry relative="1" as="geometry">
                        <Array as="points">
                            <mxPoint x="210" y="96"/>
                        </Array>
                    </mxGeometry>
                </mxCell>
                <mxCell id="35" value="&lt;span style=&quot;font-size: 12px ; font-weight: 700&quot;&gt;HTTP request&lt;/span&gt;" style="edgeLabel;html=1;align=center;verticalAlign=middle;resizable=0;points=[];" vertex="1" connectable="0" parent="34">
                    <mxGeometry x="0.0139" y="-1" relative="1" as="geometry">
                        <mxPoint as="offset"/>
                    </mxGeometry>
                </mxCell>
                <mxCell id="3" value="Computer&lt;br&gt;&lt;br&gt;www.foobar.com" style="shape=ext;double=1;rounded=1;whiteSpace=wrap;html=1;" parent="1" vertex="1">
                    <mxGeometry x="120" y="260" width="120" height="80" as="geometry"/>
                </mxCell>
                <mxCell id="13" style="edgeStyle=none;html=1;fontSize=12;entryX=0.25;entryY=0.5;entryDx=0;entryDy=0;entryPerimeter=0;" parent="1" source="6" target="36" edge="1">
                    <mxGeometry relative="1" as="geometry">
                        <Array as="points">
                            <mxPoint x="440" y="120"/>
                        </Array>
                        <mxPoint x="480" y="120" as="targetPoint"/>
                    </mxGeometry>
                </mxCell>
                <mxCell id="14" style="edgeStyle=none;html=1;fontSize=12;entryX=0.25;entryY=0.5;entryDx=0;entryDy=0;entryPerimeter=0;" parent="1" source="6" target="37" edge="1">
                    <mxGeometry relative="1" as="geometry">
                        <Array as="points">
                            <mxPoint x="440" y="470"/>
                        </Array>
                        <mxPoint x="480" y="470" as="targetPoint"/>
                    </mxGeometry>
                </mxCell>
                <mxCell id="15" style="edgeStyle=none;html=1;fontSize=12;entryX=0.25;entryY=0.5;entryDx=0;entryDy=0;entryPerimeter=0;" parent="1" source="6" target="38" edge="1">
                    <mxGeometry relative="1" as="geometry">
                        <mxPoint x="480" y="300" as="targetPoint"/>
                    </mxGeometry>
                </mxCell>
                <mxCell id="6" value="load balancer&lt;br&gt;&lt;br&gt;HAProxy" style="shape=ext;double=1;rounded=0;whiteSpace=wrap;html=1;" parent="1" vertex="1">
                    <mxGeometry x="280" y="260" width="120" height="80" as="geometry"/>
                </mxCell>
                <mxCell id="9" value="" style="shape=ext;double=1;whiteSpace=wrap;html=1;fontSize=12;" parent="1" vertex="1">
                    <mxGeometry x="560" y="40" width="280" height="480" as="geometry"/>
                </mxCell>
                <mxCell id="10" value="" style="shape=ext;double=1;whiteSpace=wrap;html=1;fontSize=12;" parent="1" vertex="1">
                    <mxGeometry x="570" y="50" width="260" height="150" as="geometry"/>
                </mxCell>
                <mxCell id="12" value="" style="shape=ext;double=1;whiteSpace=wrap;html=1;fontSize=12;" parent="1" vertex="1">
                    <mxGeometry x="570" y="360" width="260" height="150" as="geometry"/>
                </mxCell>
                <mxCell id="16" value="Ngnix" style="shape=datastore;whiteSpace=wrap;html=1;" parent="1" vertex="1">
                    <mxGeometry x="580" y="100" width="50" height="60" as="geometry"/>
                </mxCell>
                <mxCell id="17" value="Python" style="shape=datastore;whiteSpace=wrap;html=1;" parent="1" vertex="1">
                    <mxGeometry x="680" y="100" width="50" height="60" as="geometry"/>
                </mxCell>
                <mxCell id="18" value="Mysql" style="shape=datastore;whiteSpace=wrap;html=1;" parent="1" vertex="1">
                    <mxGeometry x="770" y="100" width="50" height="60" as="geometry"/>
                </mxCell>
                <mxCell id="20" value="" style="shape=ext;double=1;whiteSpace=wrap;html=1;fontSize=12;" parent="1" vertex="1">
                    <mxGeometry x="570" y="205" width="260" height="150" as="geometry"/>
                </mxCell>
                <mxCell id="21" value="Ngnix" style="shape=datastore;whiteSpace=wrap;html=1;" parent="1" vertex="1">
                    <mxGeometry x="580" y="250" width="50" height="60" as="geometry"/>
                </mxCell>
                <mxCell id="22" value="Ngnix" style="shape=datastore;whiteSpace=wrap;html=1;" parent="1" vertex="1">
                    <mxGeometry x="580" y="410" width="50" height="60" as="geometry"/>
                </mxCell>
                <mxCell id="23" value="Python" style="shape=datastore;whiteSpace=wrap;html=1;" parent="1" vertex="1">
                    <mxGeometry x="675" y="410" width="50" height="60" as="geometry"/>
                </mxCell>
                <mxCell id="24" value="Python" style="shape=datastore;whiteSpace=wrap;html=1;" parent="1" vertex="1">
                    <mxGeometry x="675" y="250" width="50" height="60" as="geometry"/>
                </mxCell>
                <mxCell id="25" value="Mysql" style="shape=datastore;whiteSpace=wrap;html=1;" parent="1" vertex="1">
                    <mxGeometry x="770" y="250" width="50" height="60" as="geometry"/>
                </mxCell>
                <mxCell id="26" value="Mysql" style="shape=datastore;whiteSpace=wrap;html=1;" parent="1" vertex="1">
                    <mxGeometry x="770" y="405" width="50" height="60" as="geometry"/>
                </mxCell>
                <mxCell id="33" style="edgeStyle=none;html=1;entryX=0.5;entryY=0;entryDx=0;entryDy=0;" edge="1" parent="1" source="30" target="6">
                    <mxGeometry relative="1" as="geometry">
                        <Array as="points">
                            <mxPoint x="340" y="105"/>
                        </Array>
                    </mxGeometry>
                </mxCell>
                <mxCell id="30" value="SSL" style="shape=parallelogram;perimeter=parallelogramPerimeter;whiteSpace=wrap;html=1;fixedSize=1;fillColor=#fa6800;fontColor=#000000;strokeColor=#C73500;" parent="1" vertex="1">
                    <mxGeometry x="250" y="80" width="100" height="50" as="geometry"/>
                </mxCell>
                <mxCell id="39" style="edgeStyle=none;html=1;entryX=0;entryY=0.167;entryDx=0;entryDy=0;entryPerimeter=0;" edge="1" parent="1" source="36" target="9">
                    <mxGeometry relative="1" as="geometry"/>
                </mxCell>
                <mxCell id="36" value="FW" style="shape=xor;whiteSpace=wrap;html=1;fillColor=#a20025;fontColor=#ffffff;strokeColor=#6F0000;" vertex="1" parent="1">
                    <mxGeometry x="470" y="80" width="60" height="80" as="geometry"/>
                </mxCell>
                <mxCell id="41" style="edgeStyle=none;html=1;entryX=-0.001;entryY=0.898;entryDx=0;entryDy=0;entryPerimeter=0;" edge="1" parent="1" source="37" target="9">
                    <mxGeometry relative="1" as="geometry"/>
                </mxCell>
                <mxCell id="37" value="FW" style="shape=xor;whiteSpace=wrap;html=1;fillColor=#a20025;fontColor=#ffffff;strokeColor=#6F0000;" vertex="1" parent="1">
                    <mxGeometry x="470" y="430" width="60" height="80" as="geometry"/>
                </mxCell>
                <mxCell id="40" style="edgeStyle=none;html=1;entryX=0;entryY=0.542;entryDx=0;entryDy=0;entryPerimeter=0;" edge="1" parent="1" source="38" target="9">
                    <mxGeometry relative="1" as="geometry"/>
                </mxCell>
                <mxCell id="38" value="FW" style="shape=xor;whiteSpace=wrap;html=1;fillColor=#a20025;fontColor=#ffffff;strokeColor=#6F0000;" vertex="1" parent="1">
                    <mxGeometry x="470" y="260" width="60" height="80" as="geometry"/>
                </mxCell>
                <mxCell id="45" style="edgeStyle=none;html=1;entryX=1;entryY=0.167;entryDx=0;entryDy=0;entryPerimeter=0;" edge="1" parent="1" source="42" target="9">
                    <mxGeometry relative="1" as="geometry"/>
                </mxCell>
                <mxCell id="42" value="Sumologic" style="ellipse;shape=doubleEllipse;whiteSpace=wrap;html=1;rotation=90;" vertex="1" parent="1">
                    <mxGeometry x="840" y="90" width="100" height="60" as="geometry"/>
                </mxCell>
                <mxCell id="46" style="edgeStyle=none;html=1;entryX=1;entryY=0.5;entryDx=0;entryDy=0;" edge="1" parent="1" source="43" target="9">
                    <mxGeometry relative="1" as="geometry"/>
                </mxCell>
                <mxCell id="43" value="Sumologic" style="ellipse;shape=doubleEllipse;whiteSpace=wrap;html=1;rotation=90;" vertex="1" parent="1">
                    <mxGeometry x="840" y="250" width="100" height="60" as="geometry"/>
                </mxCell>
                <mxCell id="47" style="edgeStyle=none;html=1;entryX=0.964;entryY=0.875;entryDx=0;entryDy=0;entryPerimeter=0;" edge="1" parent="1" source="44" target="9">
                    <mxGeometry relative="1" as="geometry"/>
                </mxCell>
                <mxCell id="44" value="Sumologic" style="ellipse;shape=doubleEllipse;whiteSpace=wrap;html=1;rotation=90;" vertex="1" parent="1">
                    <mxGeometry x="840" y="430" width="100" height="60" as="geometry"/>
                </mxCell>
            </root>
        </mxGraphModel>
    </diagram>
</mxfile>